<?xml version="1.0" encoding="utf-8"?>
<!-- Generator: Adobe Illustrator 16.0.0, SVG Export Plug-In . SVG Version: 6.00 Build 0)  -->
<!DOCTYPE svg PUBLIC "-//W3C//DTD SVG 1.1//EN" "http://www.w3.org/Graphics/SVG/1.1/DTD/svg11.dtd">
<svg version="1.1" id="Ebene_1" xmlns="http://www.w3.org/2000/svg" xmlns:xlink="http://www.w3.org/1999/xlink" x="0px" y="0px"
	 width="277.317px" height="43.441px" viewBox="0 0 277.317 43.441" enable-background="new 0 0 277.317 43.441"
	 xml:space="preserve">
<g>
	<path fill="#424898" d="M33.18,33.72h-19.5l-3.72,9H0l18.72-42h9.6l18.78,42H36.9L33.18,33.72z M30.12,26.34l-6.66-16.08
		L16.8,26.34H30.12z"/>
	<path fill="#424898" d="M78.24,42.72l-8.1-11.7h-0.48H61.2v11.7h-9.72v-42h18.18c3.72,0,6.95,0.621,9.69,1.86
		c2.739,1.24,4.85,3,6.33,5.28c1.479,2.28,2.22,4.98,2.22,8.1c0,3.12-0.75,5.811-2.25,8.07c-1.5,2.26-3.63,3.99-6.39,5.19l9.42,13.5
		H78.24z M75.779,10.53c-1.521-1.26-3.74-1.89-6.66-1.89H61.2v14.64h7.92c2.919,0,5.139-0.64,6.66-1.92
		c1.52-1.28,2.28-3.08,2.28-5.4C78.06,13.601,77.299,11.79,75.779,10.53z"/>
	<path fill="#424898" d="M103.679,8.64h-13.44V0.72h36.6v7.92h-13.44v34.08h-9.72V8.64z"/>
	<path fill="#424898" d="M132.059,0.72h9.72v42h-9.72V0.72z"/>
	<path fill="#424898" d="M180.118,21.06h8.88V38.1c-2.28,1.72-4.92,3.041-7.92,3.96c-3,0.92-6.021,1.38-9.06,1.38
		c-4.36,0-8.28-0.93-11.76-2.79c-3.48-1.86-6.21-4.44-8.19-7.74c-1.98-3.3-2.97-7.029-2.97-11.19c0-4.16,0.99-7.89,2.97-11.19
		c1.98-3.3,4.729-5.88,8.25-7.74c3.52-1.86,7.479-2.79,11.88-2.79c3.68,0,7.02,0.621,10.02,1.86c3,1.24,5.52,3.04,7.56,5.4
		l-6.24,5.76c-3-3.159-6.621-4.74-10.86-4.74c-2.68,0-5.061,0.561-7.14,1.68c-2.08,1.12-3.7,2.7-4.86,4.74
		c-1.161,2.04-1.74,4.38-1.74,7.02c0,2.601,0.579,4.92,1.74,6.96c1.16,2.04,2.77,3.63,4.83,4.77c2.06,1.14,4.41,1.71,7.05,1.71
		c2.8,0,5.319-0.6,7.56-1.8V21.06z"/>
	<path fill="#424898" d="M274.317,10.59c-2-3.3-4.74-5.89-8.22-7.77c-3.48-1.88-7.4-2.82-11.761-2.82h-36
		c-4.36,0-8.29,0.94-11.79,2.82c-3.5,1.88-6.24,4.47-8.22,7.77c-1.98,3.3-2.97,7.011-2.97,11.13c0,4.12,0.99,7.83,2.97,11.13
		c1.98,3.3,4.719,5.891,8.22,7.77c3.5,1.881,7.43,2.82,11.79,2.82l36,0c4.36,0,8.28-0.939,11.761-2.82
		c3.479-1.88,6.22-4.471,8.22-7.771s3-7.01,3-11.13C277.317,17.601,276.317,13.89,274.317,10.59z M265.768,28.68
		c-1.14,2.04-2.71,3.63-4.71,4.771c-2.001,1.14-4.24,1.709-6.721,1.709h-17.634h-0.772l-17.593,0c-2.48,0-4.72-0.57-6.72-1.71
		c-2-1.14-3.57-2.73-4.71-4.77c-1.14-2.04-1.71-4.359-1.71-6.96c0-2.6,0.57-4.92,1.71-6.96c1.14-2.04,2.709-3.63,4.71-4.77
		c2-1.14,4.239-1.71,6.72-1.71h17.593h0.771h17.635c2.48,0,4.72,0.57,6.721,1.71c2,1.14,3.57,2.73,4.71,4.77s1.71,4.36,1.71,6.96
		C267.478,24.321,266.907,26.64,265.768,28.68z"/>
</g>
</svg>
